<svg id="Layer_1" data-name="Layer 1" xmlns="http://www.w3.org/2000/svg" xmlns:xlink="http://www.w3.org/1999/xlink" viewBox="0 0 781.81 477.1"><defs><style>.cls-1,.cls-3{fill-rule:evenodd;}.cls-1{fill:url(#linear-gradient);}.cls-2,.cls-3{fill:#000640;opacity:0.5;}.cls-4{opacity:0.8;fill:url(#linear-gradient-2);}.cls-5{fill:url(#linear-gradient-3);}.cls-6{fill:url(#linear-gradient-4);}.cls-7{fill:url(#linear-gradient-5);}.cls-8{fill:url(#linear-gradient-6);}.cls-9{fill:url(#linear-gradient-7);}.cls-10{fill:url(#linear-gradient-8);}.cls-11{fill:url(#linear-gradient-9);}.cls-12{fill:url(#linear-gradient-10);}.cls-13{fill:url(#linear-gradient-11);}.cls-14{fill:url(#linear-gradient-12);}.cls-15{fill:url(#linear-gradient-13);}.cls-16,.cls-69,.cls-70{fill:#fff;}.cls-17{fill:#00759f;}.cls-18{fill:#005cb4;}.cls-19{fill:#741aac;}.cls-20{fill:#83ffff;}.cls-20,.cls-69,.cls-74{opacity:0.3;}.cls-21{fill:url(#linear-gradient-14);}.cls-22{fill:url(#linear-gradient-15);}.cls-23{fill:url(#linear-gradient-16);}.cls-24{fill:#a600a9;}.cls-25{fill:url(#linear-gradient-17);}.cls-26{fill:url(#linear-gradient-18);}.cls-27{fill:url(#linear-gradient-19);}.cls-28{fill:url(#linear-gradient-20);}.cls-29{fill:url(#linear-gradient-21);}.cls-30{fill:url(#linear-gradient-22);}.cls-31{fill:url(#linear-gradient-23);}.cls-32{fill:url(#linear-gradient-24);}.cls-33{fill:url(#linear-gradient-25);}.cls-34{fill:url(#linear-gradient-26);}.cls-35{fill:#1a2e35;}.cls-36{fill:url(#linear-gradient-27);}.cls-37,.cls-49{fill:none;stroke:#a1d2f0;stroke-linecap:round;stroke-linejoin:round;}.cls-37{stroke-width:1.48px;}.cls-38{fill:url(#linear-gradient-28);}.cls-39{fill:#f2a181;}.cls-40{fill:url(#linear-gradient-29);}.cls-41{fill:url(#linear-gradient-30);}.cls-42{fill:url(#linear-gradient-31);}.cls-43{fill:url(#linear-gradient-32);}.cls-44{fill:#b03d44;}.cls-45{fill:url(#linear-gradient-33);}.cls-46{fill:url(#linear-gradient-34);}.cls-47{fill:url(#linear-gradient-35);}.cls-48{fill:url(#linear-gradient-36);}.cls-49{stroke-width:1.44px;}.cls-50{fill:url(#linear-gradient-37);}.cls-51{fill:url(#linear-gradient-38);}.cls-52{fill:url(#linear-gradient-39);}.cls-53{fill:url(#linear-gradient-40);}.cls-54{fill:url(#linear-gradient-41);}.cls-55{fill:url(#linear-gradient-42);}.cls-56{fill:url(#linear-gradient-43);}.cls-57{fill:url(#linear-gradient-44);}.cls-58{fill:url(#linear-gradient-45);}.cls-59{fill:url(#linear-gradient-46);}.cls-60{fill:url(#linear-gradient-47);}.cls-61{fill:url(#linear-gradient-48);}.cls-62{fill:url(#linear-gradient-49);}.cls-63{fill:url(#linear-gradient-50);}.cls-64{fill:url(#linear-gradient-51);}.cls-65{fill:url(#linear-gradient-52);}.cls-66{fill:#4529ac;}.cls-67{fill:#3129ac;}.cls-68{fill:#0075b4;}.cls-70{opacity:0.1;}.cls-71{fill:#313bac;}.cls-72{fill:url(#linear-gradient-53);}.cls-73{fill:url(#linear-gradient-54);}.cls-74{fill:url(#linear-gradient-55);}</style><linearGradient id="linear-gradient" x1="406.41" y1="595.86" x2="388.91" y2="459.93" gradientUnits="userSpaceOnUse"><stop offset="0" stop-color="#70b"/><stop offset="1" stop-color="#00008b"/><stop offset="1"/></linearGradient><linearGradient id="linear-gradient-2" x1="161.18" y1="168.78" x2="159.65" y2="132.31" gradientUnits="userSpaceOnUse"><stop offset="0" stop-color="#88cfda"/><stop offset="0.05" stop-color="#93d1d5"/><stop offset="0.25" stop-color="#bad7c2"/><stop offset="0.45" stop-color="#d8dbb3"/><stop offset="0.64" stop-color="#eedea8"/><stop offset="0.83" stop-color="#fbe0a2"/><stop offset="1" stop-color="#ffe1a0"/></linearGradient><linearGradient id="linear-gradient-3" x1="93.41" y1="154.64" x2="93.41" y2="229.6" gradientUnits="userSpaceOnUse"><stop offset="0" stop-color="#7633ff"/><stop offset="0.16" stop-color="#7137ff"/><stop offset="0.35" stop-color="#6243ff"/><stop offset="0.57" stop-color="#4957ff"/><stop offset="0.79" stop-color="#2672ff"/><stop offset="1" stop-color="#0090ff"/></linearGradient><linearGradient id="linear-gradient-4" x1="109.34" y1="154.64" x2="109.34" y2="229.6" xlink:href="#linear-gradient-3"/><linearGradient id="linear-gradient-5" x1="125.27" y1="154.64" x2="125.27" y2="229.6" xlink:href="#linear-gradient-3"/><linearGradient id="linear-gradient-6" x1="141.19" y1="154.64" x2="141.19" y2="229.6" xlink:href="#linear-gradient-3"/><linearGradient id="linear-gradient-7" x1="157.12" y1="154.64" x2="157.12" y2="229.6" xlink:href="#linear-gradient-3"/><linearGradient id="linear-gradient-8" x1="173.05" y1="154.64" x2="173.05" y2="229.6" xlink:href="#linear-gradient-3"/><linearGradient id="linear-gradient-9" x1="188.98" y1="154.64" x2="188.98" y2="229.6" xlink:href="#linear-gradient-3"/><linearGradient id="linear-gradient-10" x1="204.9" y1="154.64" x2="204.9" y2="229.6" xlink:href="#linear-gradient-3"/><linearGradient id="linear-gradient-11" x1="220.83" y1="154.64" x2="220.83" y2="229.6" xlink:href="#linear-gradient-3"/><linearGradient id="linear-gradient-12" x1="236.76" y1="154.64" x2="236.76" y2="229.6" xlink:href="#linear-gradient-3"/><linearGradient id="linear-gradient-13" x1="252.68" y1="154.64" x2="252.68" y2="229.6" xlink:href="#linear-gradient-3"/><linearGradient id="linear-gradient-14" x1="472.41" y1="381.77" x2="472.41" y2="121.54" gradientUnits="userSpaceOnUse"><stop offset="0" stop-color="#a1baff"/><stop offset="0.43" stop-color="#fff"/></linearGradient><linearGradient id="linear-gradient-15" x1="478.43" y1="279.51" x2="478.43" y2="126.67" xlink:href="#linear-gradient-2"/><linearGradient id="linear-gradient-16" x1="395.97" y1="443.21" x2="395.97" y2="239.74" gradientUnits="userSpaceOnUse"><stop offset="0" stop-color="#88cfda"/><stop offset="0.18" stop-color="#98d1d2"/><stop offset="0.54" stop-color="#c2d8be"/><stop offset="1" stop-color="#ffe1a0"/></linearGradient><linearGradient id="linear-gradient-17" x1="432.7" y1="283.34" x2="432.7" y2="198.33" xlink:href="#linear-gradient-3"/><linearGradient id="linear-gradient-18" x1="295.95" y1="253.48" x2="303.99" y2="253.48" gradientTransform="translate(267.1 -137.87) rotate(45)" xlink:href="#linear-gradient-3"/><linearGradient id="linear-gradient-19" x1="295.95" y1="280.71" x2="303.99" y2="280.71" gradientTransform="translate(286.35 -129.89) rotate(45)" xlink:href="#linear-gradient-3"/><linearGradient id="linear-gradient-20" x1="295.95" y1="310.61" x2="303.99" y2="310.61" gradientTransform="translate(533.63 -52.52) rotate(76.76)" xlink:href="#linear-gradient-3"/><linearGradient id="linear-gradient-21" x1="502.37" y1="436.69" x2="654.53" y2="436.69" gradientUnits="userSpaceOnUse"><stop offset="0" stop-color="#270036"/><stop offset="0.59" stop-color="#4f008b"/><stop offset="1" stop-color="#4c24b1"/></linearGradient><linearGradient id="linear-gradient-22" x1="352.79" y1="275.26" x2="352.79" y2="186.1" xlink:href="#linear-gradient-3"/><linearGradient id="linear-gradient-23" x1="372.39" y1="277.67" x2="372.39" y2="233.7" xlink:href="#linear-gradient-3"/><linearGradient id="linear-gradient-24" x1="392.26" y1="276.07" x2="392.26" y2="245.45" gradientUnits="userSpaceOnUse"><stop offset="0" stop-color="#311341"/><stop offset="0.23" stop-color="#3113c2"/><stop offset="0.35" stop-color="#2f18c5"/><stop offset="0.49" stop-color="#2927cc"/><stop offset="0.65" stop-color="#1f40d8"/><stop offset="0.82" stop-color="#1263e9"/><stop offset="1" stop-color="#008fff"/><stop offset="1" stop-color="#0090ff"/></linearGradient><linearGradient id="linear-gradient-25" x1="441.74" y1="366.43" x2="441.74" y2="313.95" xlink:href="#linear-gradient-3"/><linearGradient id="linear-gradient-26" x1="450.78" y1="366.07" x2="450.78" y2="312.47" xlink:href="#linear-gradient-24"/><linearGradient id="linear-gradient-27" x1="102.33" y1="236.75" x2="131.8" y2="236.75" xlink:href="#linear-gradient-3"/><linearGradient id="linear-gradient-28" x1="111.62" y1="348.25" x2="91.49" y2="361.03" xlink:href="#linear-gradient-14"/><linearGradient id="linear-gradient-29" x1="90.5" y1="499.7" x2="86.34" y2="400.32" gradientUnits="userSpaceOnUse"><stop offset="0" stop-color="#a1baff"/><stop offset="0.43" stop-color="#fff"/><stop offset="0.58" stop-color="#fbfcff"/><stop offset="0.71" stop-color="#f0f4ff"/><stop offset="0.84" stop-color="#dee7ff"/><stop offset="0.96" stop-color="#c4d4ff"/><stop offset="1" stop-color="#bbcdff"/></linearGradient><linearGradient id="linear-gradient-30" x1="103.94" y1="499.13" x2="99.78" y2="399.76" xlink:href="#linear-gradient-29"/><linearGradient id="linear-gradient-31" x1="91.54" y1="372.12" x2="102.72" y2="428.02" gradientUnits="userSpaceOnUse"><stop offset="0" stop-color="#311341"/><stop offset="0.63" stop-color="#3113c2"/><stop offset="0.69" stop-color="#2f18c5"/><stop offset="0.76" stop-color="#2927cc"/><stop offset="0.84" stop-color="#1f40d8"/><stop offset="0.92" stop-color="#1263e9"/><stop offset="1" stop-color="#008fff"/><stop offset="1" stop-color="#0090ff"/></linearGradient><linearGradient id="linear-gradient-32" x1="74.96" y1="355.89" x2="90.02" y2="355.89" xlink:href="#linear-gradient-14"/><linearGradient id="linear-gradient-33" x1="82.65" y1="324.76" x2="101.86" y2="324.76" xlink:href="#linear-gradient-2"/><linearGradient id="linear-gradient-34" x1="69.07" y1="347.98" x2="115.65" y2="347.98" xlink:href="#linear-gradient-2"/><linearGradient id="linear-gradient-35" x1="84.31" y1="393.83" x2="105.07" y2="433.75" xlink:href="#linear-gradient-31"/><linearGradient id="linear-gradient-36" x1="464.48" y1="350.87" x2="493.06" y2="350.87" gradientTransform="matrix(-1, 0, 0, 1, 1069.05, -106.63)" xlink:href="#linear-gradient-3"/><linearGradient id="linear-gradient-37" x1="441.71" y1="384.19" x2="460.64" y2="478.85" gradientTransform="matrix(-1, 0, 0, 1, 1074.92, 0)" gradientUnits="userSpaceOnUse"><stop offset="0" stop-color="#3822d1"/><stop offset="0.17" stop-color="#3527d3"/><stop offset="0.37" stop-color="#2e36da"/><stop offset="0.59" stop-color="#214fe4"/><stop offset="0.83" stop-color="#0f72f2"/><stop offset="1" stop-color="#0090ff"/></linearGradient><linearGradient id="linear-gradient-38" x1="439.7" y1="332.8" x2="458.33" y2="332.8" gradientTransform="matrix(-1, 0, 0, 1, 1074.92, 0)" xlink:href="#linear-gradient-2"/><linearGradient id="linear-gradient-39" x1="513.45" y1="261.55" x2="528.36" y2="261.55" xlink:href="#linear-gradient-3"/><linearGradient id="linear-gradient-40" x1="554.03" y1="263.75" x2="545.09" y2="330.8" gradientTransform="matrix(-1, 0, 0, 1, 1072.37, 0)" xlink:href="#linear-gradient-3"/><linearGradient id="linear-gradient-41" x1="613.68" y1="291.3" x2="550.2" y2="282.36" gradientTransform="matrix(-1, 0, 0, 1, 1072.37, 0)" gradientUnits="userSpaceOnUse"><stop offset="0" stop-color="#5e60ff"/><stop offset="0.18" stop-color="#5963ff"/><stop offset="0.4" stop-color="#4a6aff"/><stop offset="0.65" stop-color="#3177ff"/><stop offset="0.91" stop-color="#0e89ff"/><stop offset="1" stop-color="#0090ff"/></linearGradient><linearGradient id="linear-gradient-42" x1="537.69" y1="284.77" x2="501.03" y2="308.01" gradientTransform="matrix(-1, 0, 0, 1, 1072.37, 0)" gradientUnits="userSpaceOnUse"><stop offset="0" stop-color="#591ddb"/><stop offset="0.16" stop-color="#52d"/><stop offset="0.36" stop-color="#4931e1"/><stop offset="0.58" stop-color="#364ae9"/><stop offset="0.81" stop-color="#1b6df4"/><stop offset="1" stop-color="#0090ff"/></linearGradient><linearGradient id="linear-gradient-43" x1="547.78" y1="329.4" x2="547.78" y2="438.48" gradientTransform="matrix(-1, 0, 0, 1, 1072.37, 0)" xlink:href="#linear-gradient-24"/><linearGradient id="linear-gradient-44" x1="532.12" y1="430.92" x2="532.12" y2="451.1" xlink:href="#linear-gradient-21"/><linearGradient id="linear-gradient-45" x1="508.44" y1="430.92" x2="508.44" y2="451.1" xlink:href="#linear-gradient-21"/><linearGradient id="linear-gradient-46" x1="179.56" y1="428.92" x2="262.61" y2="428.92" xlink:href="#linear-gradient-24"/><linearGradient id="linear-gradient-47" x1="142.43" y1="490.49" x2="155.21" y2="490.49" gradientUnits="userSpaceOnUse"><stop offset="0" stop-color="#7633ff"/><stop offset="0.11" stop-color="#6640ff"/><stop offset="0.52" stop-color="#2f6bff"/><stop offset="0.83" stop-color="#0d86ff"/><stop offset="1" stop-color="#0090ff"/></linearGradient><linearGradient id="linear-gradient-48" x1="160.11" y1="546.71" x2="188.39" y2="546.71" gradientUnits="userSpaceOnUse"><stop offset="0" stop-color="#27004f"/><stop offset="1" stop-color="#004c81"/></linearGradient><linearGradient id="linear-gradient-49" x1="104.96" y1="549.77" x2="132.51" y2="549.77" xlink:href="#linear-gradient-48"/><linearGradient id="linear-gradient-50" x1="160.11" y1="549.58" x2="187.96" y2="549.58" xlink:href="#linear-gradient-48"/><linearGradient id="linear-gradient-51" x1="144.5" y1="437.36" x2="193.15" y2="437.36" xlink:href="#linear-gradient-14"/><linearGradient id="linear-gradient-52" x1="239.4" y1="414.26" x2="168.26" y2="421.78" xlink:href="#linear-gradient-14"/><linearGradient id="linear-gradient-53" x1="233.95" y1="452.79" x2="424.62" y2="452.79" gradientTransform="translate(416.62 -100.22) rotate(45)" xlink:href="#linear-gradient-21"/><linearGradient id="linear-gradient-54" x1="300.12" y1="451.37" x2="379.93" y2="371.56" xlink:href="#linear-gradient-3"/><linearGradient id="linear-gradient-55" x1="193.77" y1="134.47" x2="318.11" y2="134.47" gradientUnits="userSpaceOnUse"><stop offset="0" stop-color="#a1baff"/><stop offset="0.09" stop-color="#acc2ff"/><stop offset="0.5" stop-color="#d9e3ff"/><stop offset="0.82" stop-color="#f5f7ff"/><stop offset="1" stop-color="#fff"/></linearGradient></defs><path class="cls-1" d="M43.79,486.42S-4,498.15,7.73,544c6.14,24,51.1,29.5,114.15,29.5,1.47,0,2.94,0,4.4,0,1.35.46,2.71.9,4.1,1.31,74.09,21.93,175.23,0,266.71-27.49,71.63-21.56,233.78-17.69,284.4-17.69,175,0,80.92-43.18,80.92-43.18Z" transform="translate(-5.87 -106.63)"/><polygon class="cls-2" points="733.36 410.78 299.14 410.78 299.14 378.86 701.45 378.86 733.36 410.78"/><path class="cls-3" d="M383.76,552.91c0,9.62-70.64,17.41-157.79,17.41s-157.8-7.79-157.8-17.41,70.65-17.4,157.8-17.4S383.76,543.3,383.76,552.91Z" transform="translate(-5.87 -106.63)"/><path class="cls-4" d="M160.51,121.09h-.27a25.17,25.17,0,1,0,25.17,25.17h-24.9Z" transform="translate(-5.87 -106.63)"/><rect class="cls-5" x="89.29" y="151.88" width="8.25" height="74.48"/><rect class="cls-6" x="105.22" y="177.17" width="8.25" height="49.19"/><rect class="cls-7" x="121.14" y="161.14" width="8.25" height="65.6"/><rect class="cls-8" x="137.07" y="154.75" width="8.25" height="71.61"/><rect class="cls-9" x="153" y="178.69" width="8.25" height="47.67"/><rect class="cls-10" x="168.92" y="188.04" width="8.25" height="38.32"/><rect class="cls-11" x="184.85" y="159.52" width="8.25" height="66.84"/><rect class="cls-12" x="200.78" y="171.57" width="8.25" height="54.79"/><rect class="cls-13" x="216.7" y="161.94" width="8.25" height="64.42"/><rect class="cls-14" x="232.63" y="182.47" width="8.25" height="43.89"/><rect class="cls-15" x="248.56" y="174.12" width="8.25" height="52.24"/><path class="cls-16" d="M257.57,275.39a2.36,2.36,0,0,1-.5-.05l-1.44-.23a20.93,20.93,0,0,0-2.35-.31l-1.51-.16-1.72-.07a45.08,45.08,0,0,0-8.84.47,49.56,49.56,0,0,0-11.28,3.08,46.21,46.21,0,0,0-12.18,7.19c-4,3.2-7.47,7.45-10.89,12.08s-7,9.64-11.9,13.7a30,30,0,0,1-8.26,5,19.82,19.82,0,0,1-9.85,1.21,23.15,23.15,0,0,1-9.29-3.52,39.29,39.29,0,0,1-7.37-6.22c-4.36-4.62-7.52-9.85-10.86-14.53s-6.78-9-10.85-12.08a27.89,27.89,0,0,0-6.37-3.62,29.59,29.59,0,0,0-6.54-1.76,31.29,31.29,0,0,0-11.62.5,28.48,28.48,0,0,0-12.76,6.44l-1.08,1a2.9,2.9,0,0,1-.38.32,2.37,2.37,0,0,1,.33-.37l1-1a28.4,28.4,0,0,1,4.5-3.39,31.38,31.38,0,0,1,20-3.94,30.9,30.9,0,0,1,6.67,1.75,28.61,28.61,0,0,1,6.52,3.66c4.16,3.12,7.69,7.46,11,12.17s6.53,9.89,10.84,14.43a38.44,38.44,0,0,0,7.24,6.1,22.36,22.36,0,0,0,9,3.42,19,19,0,0,0,9.52-1.17,29.27,29.27,0,0,0,8.06-4.86c4.82-4,8.34-9,11.83-13.56,1.73-2.31,3.46-4.54,5.28-6.6.92-1,1.82-2,2.81-2.93.49-.46,1-.92,1.45-1.36s1-.84,1.5-1.25a46.18,46.18,0,0,1,12.35-7.21,48.83,48.83,0,0,1,11.42-3,44,44,0,0,1,8.9-.36l1.73.1,1.51.19a21.06,21.06,0,0,1,2.35.38l1.43.3A3.16,3.16,0,0,1,257.57,275.39Z" transform="translate(-5.87 -106.63)"/><path class="cls-16" d="M86.07,338.18c-.19,0-.34-21.24-.34-47.44s.15-47.44.34-47.44.35,21.24.35,47.44S86.27,338.18,86.07,338.18Z" transform="translate(-5.87 -106.63)"/><path class="cls-16" d="M266,338.18c0,.19-39.13.34-87.39.34s-87.4-.15-87.4-.34,39.12-.35,87.4-.35S266,338,266,338.18Z" transform="translate(-5.87 -106.63)"/><path class="cls-16" d="M106.92,344c0,.19-2.74.35-6.12.35s-6.12-.16-6.12-.35,2.74-.35,6.12-.35S106.92,343.85,106.92,344Z" transform="translate(-5.87 -106.63)"/><path class="cls-16" d="M127.23,344.34c0,.19-3.28.35-7.32.35s-7.31-.16-7.31-.35,3.27-.35,7.31-.35S127.23,344.15,127.23,344.34Z" transform="translate(-5.87 -106.63)"/><path class="cls-16" d="M144.55,344.34c0,.19-3.27.35-7.31.35s-7.32-.16-7.32-.35,3.27-.35,7.32-.35S144.55,344.15,144.55,344.34Z" transform="translate(-5.87 -106.63)"/><path class="cls-16" d="M161.87,344.34c0,.19-3.27.35-7.31.35s-7.32-.16-7.32-.35,3.28-.35,7.32-.35S161.87,344.15,161.87,344.34Z" transform="translate(-5.87 -106.63)"/><path class="cls-16" d="M179.2,344.34c0,.19-3.28.35-7.32.35s-7.32-.16-7.32-.35,3.28-.35,7.32-.35S179.2,344.15,179.2,344.34Z" transform="translate(-5.87 -106.63)"/><path class="cls-16" d="M196.52,344.34c0,.19-3.28.35-7.32.35s-7.32-.16-7.32-.35,3.28-.35,7.32-.35S196.52,344.15,196.52,344.34Z" transform="translate(-5.87 -106.63)"/><path class="cls-16" d="M213.84,344.34c0,.19-3.28.35-7.32.35s-7.31-.16-7.31-.35,3.27-.35,7.31-.35S213.84,344.15,213.84,344.34Z" transform="translate(-5.87 -106.63)"/><path class="cls-16" d="M231.16,344.34c0,.19-3.28.35-7.32.35s-7.31-.16-7.31-.35,3.27-.35,7.31-.35S231.16,344.15,231.16,344.34Z" transform="translate(-5.87 -106.63)"/><path class="cls-16" d="M248.48,344.34c0,.19-3.27.35-7.31.35s-7.32-.16-7.32-.35,3.27-.35,7.32-.35S248.48,344.15,248.48,344.34Z" transform="translate(-5.87 -106.63)"/><path class="cls-16" d="M265.8,344.34c0,.19-3.27.35-7.31.35s-7.32-.16-7.32-.35,3.28-.35,7.32-.35S265.8,344.15,265.8,344.34Z" transform="translate(-5.87 -106.63)"/><path class="cls-16" d="M151.54,293.88c0-.09.71,0,1,1a1.72,1.72,0,0,1-.33,1.59,1.78,1.78,0,0,1-3-1.36,1.75,1.75,0,0,1,1-1.3c.89-.42,1.46.05,1.38.1s-.54-.1-1.13.32a1.37,1.37,0,0,0-.59.95,1.19,1.19,0,0,0,1.93.86,1.32,1.32,0,0,0,.32-1.06C152,294.23,151.48,294,151.54,293.88Z" transform="translate(-5.87 -106.63)"/><path class="cls-16" d="M231.27,275.9s.17-.1.47,0a1.8,1.8,0,0,1,1.09.69,1.94,1.94,0,0,1,.29,1.94,2.22,2.22,0,0,1-2,1.3,2.07,2.07,0,0,1-1.89-1.49,2,2,0,0,1,.39-1.91c.82-.83,1.6-.7,1.57-.63s-.65.21-1.18.93a1.49,1.49,0,0,0-.17,1.41,1.45,1.45,0,0,0,1.29,1,1.64,1.64,0,0,0,1.43-.88,1.45,1.45,0,0,0-.11-1.39C232,276.05,231.25,276,231.27,275.9Z" transform="translate(-5.87 -106.63)"/><path class="cls-16" d="M232.57,241.13c-.19,0-.35-.45-.35-1s.16-1,.35-1,.34.45.34,1S232.76,241.13,232.57,241.13Z" transform="translate(-5.87 -106.63)"/><path class="cls-16" d="M232.57,249.79c-.19,0-.35-1-.35-2.16s.16-2.17.35-2.17.34,1,.34,2.17S232.76,249.79,232.57,249.79Z" transform="translate(-5.87 -106.63)"/><path class="cls-16" d="M232.57,258.46c-.19,0-.35-1-.35-2.17s.16-2.16.35-2.16.34,1,.34,2.16S232.76,258.46,232.57,258.46Z" transform="translate(-5.87 -106.63)"/><path class="cls-16" d="M232.57,267.13c-.19,0-.35-1-.35-2.17s.16-2.17.35-2.17.34,1,.34,2.17S232.76,267.13,232.57,267.13Z" transform="translate(-5.87 -106.63)"/><path class="cls-16" d="M232.57,273.46c-.19,0-.35-.45-.35-1s.16-1,.35-1,.34.45.34,1S232.76,273.46,232.57,273.46Z" transform="translate(-5.87 -106.63)"/><path class="cls-17" d="M290.17,478.05s-10.21,13.83-44.83,13c-25.24-.6-50.26-19.71-50.26-19.71S237.91,443,290.17,478.05Z" transform="translate(-5.87 -106.63)"/><path class="cls-18" d="M289.63,479.5s-20.88,2.25-48.75-29.6c-20.32-23.22-23.8-61.53-23.8-61.53S278,403.46,289.63,479.5Z" transform="translate(-5.87 -106.63)"/><path class="cls-19" d="M288.69,478.93s-19-8.88-26.4-50.56c-5.37-30.38,11.48-65,11.48-65S318.1,407.86,288.69,478.93Z" transform="translate(-5.87 -106.63)"/><path class="cls-17" d="M665.28,486.43s10.14,13.75,44.54,12.92c25.09-.6,49.95-19.59,49.95-19.59S717.21,451.56,665.28,486.43Z" transform="translate(-5.87 -106.63)"/><path class="cls-18" d="M665.81,487.87s20.75,2.24,48.45-29.41c20.18-23.07,23.64-61.14,23.64-61.14S677.34,412.31,665.81,487.87Z" transform="translate(-5.87 -106.63)"/><path class="cls-19" d="M666.75,487.31s18.92-8.83,26.23-50.25c5.33-30.19-11.41-64.55-11.41-64.55S637.52,416.69,666.75,487.31Z" transform="translate(-5.87 -106.63)"/><polyline class="cls-20" points="96.88 196.68 279.82 117.39 510.22 387.28 91.05 211.95"/><rect class="cls-21" x="279.82" y="117.4" width="385.18" height="268.24"/><rect class="cls-22" x="307.04" y="133.02" width="342.78" height="146.13"/><rect class="cls-23" x="307.04" y="287.22" width="177.86" height="85.09"/><rect class="cls-24" x="403.44" y="211.16" width="17.94" height="64.41"/><rect class="cls-25" x="423.72" y="198.97" width="17.94" height="76.61"/><rect class="cls-24" x="444.08" y="157.2" width="17.94" height="118.38"/><circle class="cls-26" cx="299.97" cy="253.48" r="4.02" transform="translate(-97.25 179.73) rotate(-45)"/><circle class="cls-27" cx="299.97" cy="280.71" r="4.02" transform="translate(-116.5 187.7) rotate(-45)"/><circle class="cls-28" cx="299.97" cy="310.61" r="4.02" transform="translate(-76.95 424.84) rotate(-76.76)"/><path class="cls-29" d="M625,424.68c-13.4,3.92-13.36-2.31-29.35-5s-21,2.72-28.66,8.35-19.6-.27-27-2.77-18.36,1.43-26.92,8.51c-2.82,2.33-6.74,3.65-10.74,4.37v31.56H654.53V403.72C644.68,409,635.68,421.56,625,424.68Z" transform="translate(-5.87 -106.63)"/><path class="cls-17" d="M625,434c-13.4,3.92-13.36-2.3-29.35-5s-21,2.73-28.66,8.35-19.6-.27-27-2.77-18.36,1.43-26.92,8.52c-2.82,2.32-6.74,3.64-10.74,4.37v31.55H654.53V413C644.68,418.23,635.68,430.83,625,434Z" transform="translate(-5.87 -106.63)"/><rect class="cls-24" x="324.08" y="207.12" width="17.94" height="68.46"/><rect class="cls-30" x="343.82" y="186.97" width="17.94" height="88.61"/><rect class="cls-31" x="363.42" y="232.79" width="17.94" height="42.79"/><rect class="cls-32" x="383.29" y="245.21" width="17.94" height="30.36"/><rect class="cls-33" x="438.81" y="319.09" width="5.87" height="44.3"/><rect class="cls-18" x="429.76" y="337.73" width="5.87" height="25.65"/><rect class="cls-24" x="420.72" y="333.73" width="5.87" height="29.66"/><rect class="cls-18" x="411.68" y="351.43" width="5.87" height="11.96"/><rect class="cls-17" x="456.89" y="309.42" width="5.87" height="53.97"/><rect class="cls-34" x="447.85" y="314.35" width="5.87" height="49.04"/><rect class="cls-24" x="474.97" y="304.07" width="5.87" height="59.31"/><rect class="cls-18" x="465.93" y="292.36" width="5.87" height="71.03"/><path class="cls-35" d="M423.26,475.58a13.59,13.59,0,0,1-5.19,0,13.08,13.08,0,0,1,5.19,0Z" transform="translate(-5.87 -106.63)"/><path class="cls-35" d="M432.18,475.58a13.59,13.59,0,0,1-5.19,0,13.08,13.08,0,0,1,5.19,0Z" transform="translate(-5.87 -106.63)"/><path class="cls-35" d="M441.09,475.58a13.59,13.59,0,0,1-5.19,0,13.08,13.08,0,0,1,5.19,0Z" transform="translate(-5.87 -106.63)"/><path class="cls-35" d="M450,475.58a6.88,6.88,0,0,1-2.59.25,7,7,0,0,1-2.6-.25,6.83,6.83,0,0,1,2.6-.26A6.76,6.76,0,0,1,450,475.58Z" transform="translate(-5.87 -106.63)"/><path class="cls-35" d="M458.92,475.58a13.59,13.59,0,0,1-5.19,0,13.08,13.08,0,0,1,5.19,0Z" transform="translate(-5.87 -106.63)"/><path class="cls-35" d="M467.83,475.58a13.59,13.59,0,0,1-5.19,0,13.08,13.08,0,0,1,5.19,0Z" transform="translate(-5.87 -106.63)"/><path class="cls-35" d="M476.75,475.58a13.64,13.64,0,0,1-5.2,0,13.13,13.13,0,0,1,5.2,0Z" transform="translate(-5.87 -106.63)"/><path class="cls-35" d="M485.66,475.58a13.59,13.59,0,0,1-5.19,0,13.08,13.08,0,0,1,5.19,0Z" transform="translate(-5.87 -106.63)"/><ellipse class="cls-2" cx="101.9" cy="401.57" rx="54.62" ry="8.03"/><path d="M113.75,325.43l-7.28,32a1.52,1.52,0,0,0,1.28,1.85l22.66,3.26a1.53,1.53,0,0,0,1.7-1.18l7.28-32a1.54,1.54,0,0,0-1.27-1.86l-22.66-3.25A1.54,1.54,0,0,0,113.75,325.43Z" transform="translate(-5.87 -106.63)"/><polygon class="cls-36" points="109.3 219.83 102.33 250.44 124.83 253.68 131.8 223.06 109.3 219.83"/><line class="cls-37" x1="129.42" y1="225.32" x2="110.3" y2="222.57"/><line class="cls-37" x1="128.77" y1="228.21" x2="109.65" y2="225.46"/><line class="cls-37" x1="120.81" y1="230.61" x2="108.87" y2="228.89"/><line class="cls-37" x1="119.96" y1="233.09" x2="108.02" y2="231.38"/><line class="cls-37" x1="119.11" y1="235.58" x2="107.17" y2="233.87"/><line class="cls-37" x1="123.5" y1="249.33" x2="111.55" y2="247.61"/><path class="cls-38" d="M105,357.78a9.72,9.72,0,0,0,3.15-2.81l2.7-3.21a2.65,2.65,0,0,0,.77-1.44c-1.51-.12-2.48,1.84-4,2a31.25,31.25,0,0,1,3-7.13,2.2,2.2,0,0,0,.43-1.77,11.39,11.39,0,0,0-4.19,3.06,22.63,22.63,0,0,0-2.28,2.89,31.25,31.25,0,0,0-4.06,10" transform="translate(-5.87 -106.63)"/><path class="cls-39" d="M98.58,402.9l-7,16.14A36.16,36.16,0,0,1,96.46,436c.12,3.12-.16,6.24-.07,9.36a3.08,3.08,0,0,0,.09.67c1-4.61,1.65-8.42,1.92-10.9.77-6.94.78-18,.53-32.21A2.11,2.11,0,0,0,98.58,402.9Z" transform="translate(-5.87 -106.63)"/><path class="cls-40" d="M98.54,383.54,82.36,369.89S74.83,380.1,77.67,390c1.39,4.85,3.14,7.25,3.9,9.55.71,2.14,5.58,32.54,5.22,34.76s-3,8.44-4,15c-1.09,7.19-1,29.22-1.71,38.14h0s-.55,6.65-1.34,8.1-1.89,3.07-2.08,5a3.11,3.11,0,0,0,1.83,3c1.31.66,2.18,0,2.66,0,2.74.33,3.22,2.42,7.93,3.19A7.19,7.19,0,0,0,95,505.49a1.07,1.07,0,0,0,.2-1.46c-.28-.43-3.75-1.62-5.31-2.62s-3-3.6-3.36-4.51a5,5,0,0,1,0-1.72h0c.21-1.42.45-2.9.71-4.42.21-1.09.37-1.89.37-1.89h0c3.42-19.35,9.8-44.94,10.78-53.76C99.49,425.27,99.05,407.28,98.54,383.54Z" transform="translate(-5.87 -106.63)"/><path d="M95.4,505.83c.34-.59.43-1.47.11-1.69a27.72,27.72,0,0,0-2.93-1.76c-.91-.42-2.36-.79-1.85-.52s-.42,1.31-1.28,1.25c-3-.18-5.12-2.14-6.8-2.55-2.42-.61-3.44-3.47-3.55-3.94a11.79,11.79,0,0,0-1.74,3.32,6,6,0,0,0-.36,2.54,5.77,5.77,0,0,1,.27,2.41,4.61,4.61,0,0,0,1.75.63,6.69,6.69,0,0,0,1.87,0L81.1,504a6.83,6.83,0,0,1,1.5.14,8.5,8.5,0,0,1,2.29,1.07c.34.41.61,1.14,1,1.36a9.36,9.36,0,0,0,3.87,1C93,507.75,94.81,506.83,95.4,505.83Z" transform="translate(-5.87 -106.63)"/><path class="cls-41" d="M120.63,505.53c-.35-.38-4.1-1-5.85-1.72a10,10,0,0,1-4.1-3.91c-.4-.95-.31-5.79-.26-7.82.36-14,2.94-48.18,3.31-56.36.65-14.23-1.19-28.92-6.67-51.77L86.67,368.31s-5.7,10.61-3.79,20.76c1.11,5.89,6,6.79,6.82,9.08s13.16,39.19,13.16,39.19a69.37,69.37,0,0,0-2.54,16.71c-.12,7.46,3.26,30,3.89,38.54.07,1.67.36,5.68-.13,7-.61,1.56-2.15,3.4-2.07,5.37a3,3,0,0,0,2.31,2.69c1.45.44,2.25-.39,2.75-.41,2.88-.12,3.67,1.86,8.63,1.85a7.87,7.87,0,0,0,4.93-2A1.06,1.06,0,0,0,120.63,505.53Z" transform="translate(-5.87 -106.63)"/><path d="M121.06,507.29c.27-.64.23-1.53-.13-1.69a28.27,28.27,0,0,0-3.27-1.27c-1-.26-2.54-.39-2-.2s-.26,1.36-1.15,1.44c-3.06.31-5.58-1.28-7.37-1.42-2.59-.2-3.54-2.86-3.72-3.3a11.76,11.76,0,0,0-1.82,3.57,5.54,5.54,0,0,0,0,2.56,5.58,5.58,0,0,1,.62,2.34,4.84,4.84,0,0,0,1.89.34,7.64,7.64,0,0,0,1.94-.28v-1.54a7.7,7.7,0,0,1,1.56-.1,5.19,5.19,0,0,1,2.53.9c.42.31.87.85,1.37,1a10.35,10.35,0,0,0,4,.31C118.82,509.58,120.59,508.37,121.06,507.29Z" transform="translate(-5.87 -106.63)"/><path class="cls-42" d="M82.79,368.17c-1.39,1.52-6.32,9.74-6.37,16.42s2.33,11,2.54,12.38C80.52,407.18,82,419.5,82,420.17s5.79,4.54,13.59,4.05c14.41-.91,20-4.68,20-4.68s-.69-24.75-2.91-37c-1.11-6.12-6-16-6-16" transform="translate(-5.87 -106.63)"/><path class="cls-16" d="M69.64,341.45S72,353,72.57,355s3.62,15.08,6.47,14.86,18.49-13.28,18.49-13.28l-2.22-4.43-13.76,6.56s-1.24-14.89-2.33-18.44" transform="translate(-5.87 -106.63)"/><path class="cls-43" d="M75,348.55c1.45,5.15,4.44,10.57,5.33,14.56.18.81,9.71-2.66,9.73-6.24" transform="translate(-5.87 -106.63)"/><path class="cls-44" d="M73.74,334.74s-.5,9.63,1.24,14.49a15.61,15.61,0,0,0,3.23-.42Z" transform="translate(-5.87 -106.63)"/><path class="cls-16" d="M100.76,295.24c2.75,3.56,2.21,8.58,1.53,13-.34,2.25-.69,4.5-1,6.75a3.39,3.39,0,0,1-4.34,3.56l0,5.59c-3.18.07-6.37.09-9.56,0a9.21,9.21,0,0,0-.82-3.8c-1.56,0-2.6-1.59-3.21-3a43.15,43.15,0,0,1-1.71-5.11,28.05,28.05,0,0,1-1.35-7,10.1,10.1,0,0,1,2-6.7,12.08,12.08,0,0,1,3.88-2.9c2-1,4.35-1.85,6.39-1" transform="translate(-5.87 -106.63)"/><path d="M98,303.41c.25.4.19.92.42,1.33A3.09,3.09,0,0,0,100,306c1.15.53.88,2.2.85,2.95.86-.57,1-2.14,1.21-2.93s.38-1.81.65-2.7a13.8,13.8,0,0,0,.77-2.57,10.61,10.61,0,0,0-4.06-8.57,5.63,5.63,0,0,0-6.31.08,4.92,4.92,0,0,0-1.81,2.29,1.56,1.56,0,0,0-.07,1.23" transform="translate(-5.87 -106.63)"/><path class="cls-45" d="M82.65,325.51c.16-1.09.46-2.36,1.47-2.79a3,3,0,0,1,.9-.19,73.16,73.16,0,0,1,9.36-.45,8.71,8.71,0,0,1,3.79.67c1.81.91,2.81,2.86,3.69,4.69" transform="translate(-5.87 -106.63)"/><path class="cls-44" d="M107.9,346.42a10.26,10.26,0,0,1-.75,2.92c-.71.37-3.53,1-5.15.23a75.82,75.82,0,0,0-2.33-9.85S107.9,345.48,107.9,346.42Z" transform="translate(-5.87 -106.63)"/><path class="cls-16" d="M104.28,344.07s9.34,22.56,13.39,22.56c2.94,0,10.17-20.83,10.17-20.83l-4.57-2.16-5.09,8.72L113,336.1" transform="translate(-5.87 -106.63)"/><path class="cls-16" d="M122.37,345.19s1.51-2.38,1.4-4.07c0-.64-.43-3.71-.11-4.31a17.46,17.46,0,0,1,1.53-3c.44-.39,2.06-1,2.46-.73s.89-1,1.55-.88a1.4,1.4,0,0,1,1.2,1.27c0,.6.88.71,1,1.15a5.88,5.88,0,0,0,.22,1.15c.16.32.65.16.82,1s-.05.83,0,1.21.38.35.27,1.08a9.39,9.39,0,0,1-1,2.5,7.31,7.31,0,0,1-2.55,2.58,4.89,4.89,0,0,0-1.49,2" transform="translate(-5.87 -106.63)"/><path d="M124.88,327.76a.57.57,0,0,0-.81-.22.73.73,0,0,0-.18.9l2.76,6.25s.22.25.65-.12.32-.61.32-.61S125,327.94,124.88,327.76Z" transform="translate(-5.87 -106.63)"/><path d="M127.78,333.55a6.34,6.34,0,0,1-1.68,1.76c-.43.4-.38.66-.85,1.08.83-.06.69-.55,1.77-1.33a2.32,2.32,0,0,0,1.11-1.36.19.19,0,0,0-.35-.15Z" transform="translate(-5.87 -106.63)"/><path class="cls-46" d="M107.91,348.18c3-.56,5.34-2.65,7.74-5.09-1.33-3.66-3.22-12.7-6.51-16.14s-9.13-3.11-12.2-3c-3.18-.14-5.8.24-9.6.41a43.68,43.68,0,0,0-7.54.95l-.84.2v0s-4.56.48-6.88,2.25c-5.89,4.52-1.33,20.9-1.33,20.9s-.29.87,3.67.65c.67,0,1.32-.1,1.94-.18,2.06,4.83,7.24,14.79,5.73,16.92a8.33,8.33,0,0,0-1.49,2.3c-.44,2.53,5.29,3.42,7.74,3.63a96.16,96.16,0,0,0,11.76-.08c2.83-.13,9-1.12,9.47-4.62a2.52,2.52,0,0,0-.59-1.75,24.28,24.28,0,0,1-1.8-2.12c-.86-1.7-1.62-8.84-1.32-10.67C106.09,351.26,107.09,350.31,107.91,348.18Z" transform="translate(-5.87 -106.63)"/><path class="cls-47" d="M98.39,424c-.91-5.94-6.6-24.34-6.84-24.85a22.18,22.18,0,0,1-6.17-6.88c-.7,4,1.14,8,2.86,11.74,3,6.49,4.8,13.54,7.39,20.21" transform="translate(-5.87 -106.63)"/><path d="M97.47,312.22a5.8,5.8,0,0,1,.26-4.17,2.6,2.6,0,0,1,.84-1.06,1.75,1.75,0,0,1,1.7-.18,2,2,0,0,1,.86.8,24.66,24.66,0,0,0,.59-7.81A10.14,10.14,0,0,0,95.29,291c-6.75-2.77-16.45,0-19.19,6.59-2.07,5-1,12.23,2.94,16.42,3.51,3.71,8.56,4.26,13.21,3.49,2.39-.39,6.07-.15,7.3-3.39a.36.36,0,0,0-.37-.48C98.21,313.66,97.54,312.57,97.47,312.22Z" transform="translate(-5.87 -106.63)"/><path d="M84.31,315.14c-1.94-.55-4,.55-5.34,2.1-1.49,1.79-2.14,4.58-.74,6.44a6.07,6.07,0,0,0,2,1.62,10.74,10.74,0,0,0,7.63,1.42c2.58-.63,4.84-2.94,4.81-5.59,0-2.4-1.78-4.4-3.55-6" transform="translate(-5.87 -106.63)"/><path class="cls-2" d="M675.81,511.12c0,5.88-23.83,10.64-53.24,10.64s-53.23-4.76-53.23-10.64,23.83-10.63,53.23-10.63S675.81,505.25,675.81,511.12Z" transform="translate(-5.87 -106.63)"/><path d="M605.05,333.45l7.06,31a1.48,1.48,0,0,1-1.24,1.79l-22,3.16a1.49,1.49,0,0,1-1.66-1.14l-7.06-31a1.49,1.49,0,0,1,1.24-1.8l22-3.16A1.49,1.49,0,0,1,605.05,333.45Z" transform="translate(-5.87 -106.63)"/><polygon class="cls-48" points="597.81 227.82 604.57 257.52 582.75 260.65 575.99 230.96 597.81 227.82"/><line class="cls-49" x1="578.3" y1="233.15" x2="596.84" y2="230.48"/><line class="cls-49" x1="578.92" y1="235.95" x2="597.47" y2="233.29"/><line class="cls-49" x1="586.64" y1="238.28" x2="598.23" y2="236.61"/><line class="cls-49" x1="587.47" y1="240.69" x2="599.06" y2="239.03"/><line class="cls-49" x1="588.29" y1="243.1" x2="599.88" y2="241.44"/><line class="cls-49" x1="584.04" y1="256.43" x2="595.63" y2="254.77"/><path d="M613.51,364.84a9.6,9.6,0,0,1-3.06-2.73L607.83,359a2.63,2.63,0,0,1-.74-1.39c1.46-.12,2.41,1.78,3.87,1.89a30.34,30.34,0,0,0-2.91-6.9,2.16,2.16,0,0,1-.42-1.72,11,11,0,0,1,4.07,3,21.18,21.18,0,0,1,2.2,2.8,30.32,30.32,0,0,1,4,9.69" transform="translate(-5.87 -106.63)"/><path class="cls-39" d="M619.76,408.59l6.83,15.66a35.18,35.18,0,0,0-4.77,16.42c-.11,3,.16,6,.07,9.07a2.56,2.56,0,0,1-.09.66c-.91-4.48-1.59-8.18-1.86-10.58-.75-6.73-.75-17.43-.51-31.24Z" transform="translate(-5.87 -106.63)"/><path d="M619.81,389.82l15.69-13.24s7.3,9.9,4.55,19.46c-1.35,4.7-3,7-3.79,9.26-.69,2.08-5.41,31.56-5.06,33.72s2.89,8.19,3.86,14.53c1.06,7,1,28.34,1.66,37h0s.54,6.45,1.3,7.86a13.14,13.14,0,0,1,2,4.88,3,3,0,0,1-1.78,2.93c-1.27.65-2.12,0-2.57,0-2.66.32-3.13,2.34-7.7,3.09a6.94,6.94,0,0,1-4.79-1.22,1,1,0,0,1-.19-1.41c.26-.42,3.63-1.58,5.15-2.55s2.86-3.49,3.25-4.37a4.67,4.67,0,0,0,0-1.67h0c-.21-1.38-.44-2.82-.69-4.3-.2-1.05-.37-1.82-.37-1.82h0c-3.32-18.78-9.51-43.6-10.46-52.15C618.88,430.29,619.31,412.85,619.81,389.82Z" transform="translate(-5.87 -106.63)"/><path d="M622.85,508.43c-.33-.56-.41-1.42-.11-1.63a24.8,24.8,0,0,1,2.84-1.71c.89-.41,2.29-.77,1.8-.5s.41,1.26,1.24,1.21c2.86-.17,5-2.08,6.6-2.48,2.35-.59,3.33-3.36,3.44-3.81a10.72,10.72,0,0,1,1.68,3.22,5.58,5.58,0,0,1,.35,2.45,5.85,5.85,0,0,0-.26,2.35,4.59,4.59,0,0,1-1.69.61,6.59,6.59,0,0,1-1.82,0l-.2-1.47a6.38,6.38,0,0,0-1.45.14,7.55,7.55,0,0,0-2.22,1c-.33.39-.59,1.1-1,1.31a9.18,9.18,0,0,1-3.75.94C625.21,510.3,623.42,509.41,622.85,508.43Z" transform="translate(-5.87 -106.63)"/><path d="M598.38,508.15c.34-.37,4-1,5.68-1.68a9.79,9.79,0,0,0,4-3.79c.38-.92.3-5.61.25-7.58-.34-13.57-2.85-46.73-3.21-54.67-.63-13.8,1.16-28.05,6.47-50.21l19.77-15.17s5.54,10.29,3.69,20.13c-1.08,5.71-5.81,6.59-6.62,8.81s-12.76,38-12.76,38a67.17,67.17,0,0,1,2.46,16.21c.12,7.24-3.16,29.06-3.77,37.38-.07,1.62-.35,5.51.13,6.75.58,1.52,2.08,3.3,2,5.21a2.94,2.94,0,0,1-2.25,2.61c-1.4.43-2.18-.38-2.66-.4-2.79-.11-3.56,1.8-8.37,1.8a7.62,7.62,0,0,1-4.78-2A1,1,0,0,1,598.38,508.15Z" transform="translate(-5.87 -106.63)"/><path d="M598,509.85c-.27-.62-.23-1.48.12-1.64a27.27,27.27,0,0,1,3.17-1.23c1-.26,2.47-.38,1.92-.2s.25,1.32,1.11,1.41c3,.29,5.42-1.24,7.16-1.38,2.51-.2,3.43-2.78,3.6-3.21a11.4,11.4,0,0,1,1.77,3.46,5.51,5.51,0,0,1,0,2.49,5.33,5.33,0,0,0-.6,2.27,4.72,4.72,0,0,1-1.84.33,7.42,7.42,0,0,1-1.88-.27v-1.5a7.79,7.79,0,0,0-1.52-.09,4.94,4.94,0,0,0-2.45.87c-.41.3-.84.82-1.32.94a10.17,10.17,0,0,1-3.91.3C600.14,512.07,598.42,510.9,598,509.85Z" transform="translate(-5.87 -106.63)"/><path class="cls-50" d="M635.09,374.91c1.34,1.48,6.12,9.44,6.17,15.93s-2.25,10.65-2.46,12c-1.52,9.91,4.82,59.8,4.82,60.45s-8.07,7.17-15.6,8c-16.54,1.9-32.14-5.19-32.14-5.19s2.84-38.29,10.15-77.24c1.11-5.92,5.78-15.47,5.78-15.47" transform="translate(-5.87 -106.63)"/><path d="M647.84,349s-2.25,11.19-2.84,13.18-3.51,14.63-6.28,14.41-17.93-12.88-17.93-12.88l2.14-4.29,13.35,6.36s1.21-14.45,2.26-17.89" transform="translate(-5.87 -106.63)"/><path class="cls-44" d="M643.86,342.49s.49,9.34-1.2,14.05a15.07,15.07,0,0,1-3.14-.41Z" transform="translate(-5.87 -106.63)"/><path class="cls-16" d="M617.65,304.17c-2.67,3.46-2.14,8.32-1.48,12.64q.5,3.27,1,6.55a4.3,4.3,0,0,0,1.17,2.83,4.35,4.35,0,0,0,3,.62c0,1.81,0,3.61,0,5.42,3.09.07,6.18.09,9.28,0a8.8,8.8,0,0,1,.8-3.68c1.51,0,2.52-1.55,3.11-2.94a42.44,42.44,0,0,0,1.66-5,27.29,27.29,0,0,0,1.31-6.79,9.83,9.83,0,0,0-2-6.51,11.78,11.78,0,0,0-3.77-2.81c-1.91-1-4.22-1.79-6.19-.92" transform="translate(-5.87 -106.63)"/><path d="M620.34,312.1c-.24.38-.18.89-.41,1.28a2.92,2.92,0,0,1-1.58,1.21c-1.11.52-.85,2.14-.82,2.86-.84-.56-1-2.07-1.18-2.85s-.37-1.75-.62-2.6a13.15,13.15,0,0,1-.75-2.51,10.26,10.26,0,0,1,3.93-8.3,5.48,5.48,0,0,1,6.13.07,4.86,4.86,0,0,1,1.75,2.22,1.48,1.48,0,0,1,.06,1.2" transform="translate(-5.87 -106.63)"/><path class="cls-51" d="M635.22,333.53c-.16-1.06-.45-2.29-1.43-2.71a3.13,3.13,0,0,0-.87-.18,70.61,70.61,0,0,0-9.08-.43,8.49,8.49,0,0,0-3.68.64c-1.76.89-2.72,2.78-3.57,4.56" transform="translate(-5.87 -106.63)"/><path class="cls-44" d="M610.73,353.81a9.79,9.79,0,0,0,.73,2.84c.69.35,3.42.94,5,.23a73.37,73.37,0,0,1,2.26-9.56S610.73,352.9,610.73,353.81Z" transform="translate(-5.87 -106.63)"/><path d="M614.24,351.53s-9.06,21.89-13,21.89c-2.85,0-9.86-20.2-9.86-20.2l4.43-2.1,4.93,8.46,5-15.78" transform="translate(-5.87 -106.63)"/><path d="M596.69,352.63s-1.46-2.32-1.36-3.95c0-.63.42-3.6.11-4.19a17.93,17.93,0,0,0-1.48-2.87c-.43-.37-2-1-2.39-.71s-.86-1-1.5-.85a1.36,1.36,0,0,0-1.17,1.23c0,.58-.85.69-.95,1.11a6.17,6.17,0,0,1-.22,1.12c-.16.32-.63.16-.8,1s.06.8,0,1.17-.37.33-.26,1a8.61,8.61,0,0,0,1,2.43,7,7,0,0,0,2.46,2.5,4.63,4.63,0,0,1,1.44,2" transform="translate(-5.87 -106.63)"/><path class="cls-16" d="M594.26,335.72a.53.53,0,0,1,.78-.21.69.69,0,0,1,.18.86l-2.68,6.06s-.22.25-.63-.11-.31-.6-.31-.6S594.15,335.89,594.26,335.72Z" transform="translate(-5.87 -106.63)"/><path d="M591.44,341.33a6.26,6.26,0,0,0,1.63,1.71c.42.39.37.64.83,1-.81-.06-.67-.53-1.71-1.29a2.13,2.13,0,0,1-1.08-1.32.18.18,0,0,1,.33-.14Z" transform="translate(-5.87 -106.63)"/><path class="cls-24" d="M610.71,355.52c-2.91-.54-5.18-2.56-7.5-4.93,1.29-3.56,3.12-12.32,6.32-15.66s8.85-3,11.83-2.92c3.08-.13,5.62.23,9.31.4a42,42,0,0,1,7.31.92l.81.19v0s4.42.47,6.67,2.19c5.72,4.38,1.29,20.27,1.29,20.27s.28.84-3.56.63c-.65,0-1.28-.1-1.88-.18-2,4.69-7,14.35-5.56,16.42a7.92,7.92,0,0,1,1.45,2.23c.42,2.45-5.13,3.32-7.51,3.51a92.28,92.28,0,0,1-11.4-.07c-2.75-.13-8.77-1.09-9.2-4.49a2.49,2.49,0,0,1,.58-1.69,26.16,26.16,0,0,0,1.74-2.05c.84-1.65,1.58-8.58,1.29-10.35C612.48,358.51,611.51,357.59,610.71,355.52Z" transform="translate(-5.87 -106.63)"/><path d="M620.85,320.64a5.7,5.7,0,0,0-.26-4.05,2.76,2.76,0,0,0-.81-1,1.74,1.74,0,0,0-1.65-.17,1.84,1.84,0,0,0-.83.78,23.74,23.74,0,0,1-.58-7.57A9.87,9.87,0,0,1,623,300c6.55-2.69,15.95,0,18.61,6.4,2,4.85,1,11.85-2.85,15.92-3.41,3.6-8.3,4.13-12.82,3.39-2.31-.38-5.88-.15-7.07-3.3a.35.35,0,0,1,.36-.46C620.13,322,620.78,321,620.85,320.64Z" transform="translate(-5.87 -106.63)"/><path d="M633.61,323.48c1.88-.53,3.92.53,5.17,2,1.46,1.74,2.08,4.44.73,6.25a6,6,0,0,1-2,1.57,10.45,10.45,0,0,1-7.41,1.38c-2.49-.62-4.69-2.85-4.66-5.42,0-2.33,1.73-4.27,3.45-5.84" transform="translate(-5.87 -106.63)"/><path d="M619.78,315.56s1.92,0-.59,6.41-2.75,18.43-2.75,18.43a43.18,43.18,0,0,0,16.07,2.6c9.22-.24,10.16-.24,10.4-.94s5.91-35.22-6.62-41.12" transform="translate(-5.87 -106.63)"/><ellipse class="cls-2" cx="556.04" cy="454.06" rx="54.62" ry="8.03"/><polygon points="493.38 343.57 545.23 343.57 542.99 338.6 491.33 338.6 493.38 343.57"/><polygon points="591.71 454.28 585.57 454.28 508.97 260.15 515.7 260.15 591.71 454.28"/><polygon points="482.37 315.7 534.21 315.7 531.97 310.73 480.32 310.73 482.37 315.7"/><polygon points="471.26 287.44 523.1 287.44 520.86 282.47 469.21 282.47 471.26 287.44"/><polygon points="536.46 454.28 530.32 454.28 453.71 260.15 460.44 260.15 536.46 454.28"/><polygon points="526.12 427.97 577.97 427.97 575.73 423 524.08 423 526.12 427.97"/><polygon points="515.21 399.71 567.05 399.71 564.82 394.74 513.16 394.74 515.21 399.71"/><polygon points="504.2 372.03 556.04 372.03 553.8 367.06 502.15 367.06 504.2 372.03"/><path class="cls-52" d="M528.36,262.37l-1.9-3.95a31.56,31.56,0,0,1-6.58,1.32,11.26,11.26,0,0,0-4.09.73l-2.34,3.8S522.51,266,528.36,262.37Z" transform="translate(-5.87 -106.63)"/><path class="cls-53" d="M528.36,262.37s4.82-.44,7.31,1,5.12,10.67,6,17,2.34,30.7,2.49,35.67,0,16.22,0,16.22S531,335,521.93,334.73s-16.23-7.46-16.23-7.46.73-10.38,1.9-13.74,3.07-9.5,1.9-14.62-4.68-19.88-3.8-25.43,0-6.58,3.07-7.6,4.68-1.61,4.68-1.61A24.45,24.45,0,0,0,528.36,262.37Z" transform="translate(-5.87 -106.63)"/><path class="cls-54" d="M516.08,274.6a34,34,0,0,1-5.46,13.15c-4.68,7-10.52,13.94-12.47,15s-6,.88-8.29-.88-17.73-19.68-17.73-19.68a5.92,5.92,0,0,1,1.65-4,5.32,5.32,0,0,1,3.51-1.85l14.91,12.57s9.46-16,11.79-18.81,4.68-3.5,6.54-3.21S516.28,270.5,516.08,274.6Z" transform="translate(-5.87 -106.63)"/><path class="cls-16" d="M476.22,276.45a33,33,0,0,0-5-4.39,29.36,29.36,0,0,0-8.19-2c-.78.09-.8.63.17,1.12a28.3,28.3,0,0,0,3.15,1.12s-2.73,1.65-2.73,2.82,1.75,3.42,2.82,3.42a17.55,17.55,0,0,0,2.64-.3l3.21,2.44A6.28,6.28,0,0,1,476.22,276.45Z" transform="translate(-5.87 -106.63)"/><path class="cls-55" d="M536.25,263.83c-.15-.16,14,12.06,17.84,17.61s7.16,13.67,6.65,15.86-4.46,6.29-7.09,8.48-9.58,6.87-9.58,6.87l-.58-13.88s4.75-4.39,4.31-5-5.26-5.41-5.26-5.41-.66-9.5-2.19-14.77S537.64,265.29,536.25,263.83Z" transform="translate(-5.87 -106.63)"/><path class="cls-56" d="M506.41,327.93c2,1.77,8.14,6.56,15.52,6.8,9.06.29,22.22-2.49,22.22-2.49s-1.61,10.67-2.93,14.91a67.61,67.61,0,0,0-2.33,11.41c-.15,1.75,2.48,31.13,2.92,39.47s-.68,35.32-.68,35.32h-8.19s-3-32.55-5.6-50.53-4-27.63-4-27.63l-1.9,3.22S520.61,390,519.88,404s-2.29,29.48-2.29,29.48l-8.62.44s-3.42-53.46-3.85-68.81C504.7,350.66,506.24,330.21,506.41,327.93Z" transform="translate(-5.87 -106.63)"/><path class="cls-57" d="M540.64,433.45s1.26,7.11,1.26,8.09-.38,4.29-.38,4.29-5.95.19-10,.09a58.77,58.77,0,0,1-8.87-1.07s-.78-2.63.29-4.09,5.26-1.76,6.53-3.22,3.51-4.19,3.51-4.19S539.47,433.84,540.64,433.45Z" transform="translate(-5.87 -106.63)"/><path class="cls-58" d="M517,433.45s1.26,7.11,1.26,8.09-.39,4.29-.39,4.29-5.94.19-10,.09a58.56,58.56,0,0,1-8.87-1.07s-.78-2.63.29-4.09,5.26-1.76,6.53-3.22,3.51-4.19,3.51-4.19S515.79,433.84,517,433.45Z" transform="translate(-5.87 -106.63)"/><path d="M526.41,257.93s1.13-14.67-.1-18.51c-1.46-4.58-4.38-7.8-9-8s-12.19.2-14.23,2.73-1,6.24-.78,7.41,2.14,2.44,2.14,2.44,2.93-.78,3.8-.1,2.25,3.7,2.25,3.7,1-2.88,2.24-2.34c3.12,1.37,2.14,5.46,1.65,6.34-.62,1.12,0,.29,0,.29l6.92,7.5A7.71,7.71,0,0,0,526.41,257.93Z" transform="translate(-5.87 -106.63)"/><path class="cls-16" d="M508.28,243.9c.88.68,2.25,3.7,2.25,3.7s1-2.88,2.24-2.34c3.12,1.37,2.14,5.46,1.65,6.34-.62,1.12,0,.29,0,.29l6.92,7.5-5.55,1.08-.2-1.37a13.45,13.45,0,0,1-3.41.78c-1.26,0-2.73-2.63-4.38-5.46S504.48,244,504.48,244,507.41,243.22,508.28,243.9Z" transform="translate(-5.87 -106.63)"/><path class="cls-59" d="M180.39,424s15.32,0,20.64-.88l5.3-.88L226,419.81l-1.75,6.27s-7,2.48-13.09,4.11-18,4.83-19.8,5.28S179.56,438,179.56,438" transform="translate(-5.87 -106.63)"/><path d="M143.16,451s-5.11,4.17-6.72,7.94a25.74,25.74,0,0,0-1.62,11c.27,1.88.94,3.77.94,3.36s-2.15,28.93-2.15,28.93S124.46,510,121,516.47s-11.3,23.94-11.3,23.94,6.32,3.1,8.61,3.5l2.28.4s9.82-20.31,12.78-23.94c1.87-2.3,9.28-8.48,12.11-13.32s7.94-25,7.94-25,6.59,7.13,9.55,10.36,6.59,7.8,6.59,9-2.56,10.22-3.23,13.45-3.36,25.43-3.36,25.43a24.83,24.83,0,0,0,7,.4c3.23-.4,3.77-1.08,3.77-1.08s1.88-15.33,3.63-22.86a128.62,128.62,0,0,1,4.31-15.07c.53-1.21.67-3.77-1.08-9s-7.13-16.15-11.43-22.6l-4.31-6.46S150.56,456.2,143.16,451Z" transform="translate(-5.87 -106.63)"/><path class="cls-60" d="M153.07,483.28c1.31-7.31,2.14-13.37,2.14-13.37L150,491.45c-1.38,7.89-7.52,19.54-7.52,19.54a.45.45,0,0,0,0,.08,27.44,27.44,0,0,0,3-4C147.85,502.93,151.9,487.74,153.07,483.28Z" transform="translate(-5.87 -106.63)"/><path class="cls-61" d="M162.94,540.28s-2.2,3.41-2.29,3.85-.54,5.16-.54,5.16l7.54,1.68.53-1.46s7.72,3.86,9.15,4a80.94,80.94,0,0,0,9.51-.27c1-.27,2.33-2.06,1-2.6s-5.91-.72-7-1.34-6.55-5.65-7.09-7.09a19.23,19.23,0,0,1-.71-2.24S170.16,541.53,162.94,540.28Z" transform="translate(-5.87 -106.63)"/><path class="cls-62" d="M109.87,540.68a28.69,28.69,0,0,0-2.89,4.84c-.47,1.48-2,6.19-2,6.19a20,20,0,0,0,3.77,2.36l1.88.74,1.07-1.08s3.64,3.5,6.73,4.3,9.35,1.08,11.5.54,3.16-2.62,2.29-3.36-3.83-1-5.65-2.56-5.18-4.3-5.65-5.71a6.9,6.9,0,0,1-.34-2.63S119.69,544.92,109.87,540.68Z" transform="translate(-5.87 -106.63)"/><path class="cls-63" d="M188,552.36c-1.09.18-2.74.25-5.16.38-4.75.27-6.19-1.16-11.57-3-4.27-1.49-9-3.33-10.76-4-.16,1.53-.36,3.62-.36,3.62l7.54,1.68.53-1.46s7.72,3.86,9.15,4a80.94,80.94,0,0,0,9.51-.27A2.33,2.33,0,0,0,188,552.36Z" transform="translate(-5.87 -106.63)"/><path d="M130.16,557.76c-1.7.54-9.69.63-13.27-1.07-2.92-1.39-8.75-6.51-10.82-8.38l-1.11,3.4a20,20,0,0,0,3.77,2.36l1.88.74,1.07-1.08s3.64,3.5,6.73,4.3,9.35,1.08,11.5.54a3.43,3.43,0,0,0,2.55-2.24A5.87,5.87,0,0,1,130.16,557.76Z" transform="translate(-5.87 -106.63)"/><path d="M143.16,451l1.35-2.42,21.43,13.19-1.12,1.88S147.83,454.81,143.16,451Z" transform="translate(-5.87 -106.63)"/><path class="cls-64" d="M144.51,448.53c-.34-.21,15-19.73,20.89-26s11.21-9.78,15.43-9.51,10.76,6.37,12.11,11.93-4,17-5.29,19.1-7.45,5.65-12.2,9.33-6,5.38-7.36,6.36a13,13,0,0,0-2.15,2S147.56,450.42,144.51,448.53Z" transform="translate(-5.87 -106.63)"/><path class="cls-16" d="M145.56,448.87A196.78,196.78,0,0,1,166,423.07c7.85-8.18,14.15-9.77,14.15-9.77s-3.56-.5-10.9,5.51c-6.26,5.14-24.72,29.72-24.72,29.72Z" transform="translate(-5.87 -106.63)"/><path d="M191.14,420.73s8.16-5.92,9.42-7.08,7-1.71,9.95-.27,6.46,9.5,6.37,12a7.73,7.73,0,0,1-2,4.49l-2.87-.72a24.39,24.39,0,0,1-3,3,4.75,4.75,0,0,1-2,.45s-1.89,3.86-2.51,3.86a9.8,9.8,0,0,1-2.61-1.35s-6,2.06-6.27,1.52-3.32-4.84-3.32-4.84A12,12,0,0,0,191.14,420.73Z" transform="translate(-5.87 -106.63)"/><path class="cls-65" d="M182.08,413.38s15.16,2.24,20.54,2.15l5.38-.09,25.11-2.78.63,5.92s-15.87,4.66-22.15,5.38-18.47,2.15-20.36,2.33-12,.81-12,.81" transform="translate(-5.87 -106.63)"/><path class="cls-16" d="M233.2,413.83s4.22-1.89,4.76-3,.36-4.58,1-6,3.41-5.29,3.95-5.29.9.09.63,2.51-.9,5.38-.9,6.54.27,4.58-.54,5.56-2.33,1.35-3.41,1.89a36.1,36.1,0,0,1-5.11,1.34Z" transform="translate(-5.87 -106.63)"/><rect class="cls-18" x="112.08" y="71.21" width="83.53" height="6.43"/><rect class="cls-17" x="152.23" y="84.87" width="83.53" height="6.43"/><rect class="cls-66" x="55.05" y="96.91" width="148.91" height="6.43"/><rect class="cls-67" x="279.13" y="103.34" width="148.91" height="6.43"/><rect class="cls-66" x="301.14" y="89.69" width="53.01" height="6.43"/><rect class="cls-68" x="402.01" y="90.49" width="57.35" height="6.43"/><rect class="cls-69" x="570.04" y="92.9" width="57.35" height="6.43"/><rect class="cls-70" x="512.13" y="71.21" width="57.35" height="6.43"/><rect class="cls-17" x="282.67" y="27.85" width="55.42" height="6.43"/><rect class="cls-71" x="309.98" y="45.51" width="65.05" height="6.43"/><circle class="cls-72" cx="329.28" cy="452.79" r="95.34" transform="translate(-229.59 258.83) rotate(-45)"/><path class="cls-73" d="M329.28,357.46h0v95.33l82.31-48.13A95.28,95.28,0,0,0,329.28,357.46Z" transform="translate(-5.87 -106.63)"/><path class="cls-74" d="M302.45,131a15.59,15.59,0,0,0-8,2.19,15.65,15.65,0,0,0-15.61-14.57,15.39,15.39,0,0,0-5.1.88,18.76,18.76,0,0,0-35.59,0,15.61,15.61,0,0,0-20.74,13.69,15.66,15.66,0,1,0-8,29.12,16,16,0,0,0,1.7-.1h24.05a18.76,18.76,0,0,0,2.14.14,16.31,16.31,0,0,0,1.86-.1h34.33c.35,0,.7.06,1.05.06s.71,0,1.06-.06h25.13a16,16,0,0,0,1.7.1,15.66,15.66,0,1,0,0-31.31Z" transform="translate(-5.87 -106.63)"/></svg>